<svg id="Layer_01" data-name="Layer 01" xmlns="http://www.w3.org/2000/svg" viewBox="0 0 464.41 319.37"><defs><style>.cls-1{fill:#fff;}</style></defs><path class="cls-1" d="M209,139.9l-.15-.05.36.14Z"/><path class="cls-1" d="M263.86,224.69h0l52.75,59.15Zm198.75-77.32a3.9,3.9,0,0,1,.51.4A2.09,2.09,0,0,0,462.61,147.37Zm-.58-.32a4.71,4.71,0,0,1,.58.32A2.36,2.36,0,0,0,462,147.05Zm-2.13-.31a4.3,4.3,0,0,1,.8,0A3.05,3.05,0,0,0,459.9,146.74ZM350.27,319.36h0Z"/><path class="cls-1" d="M464.39,150.23a4.3,4.3,0,0,0-.09-.47.05.05,0,0,0,0,0c0-.09,0-.19-.08-.28A2.92,2.92,0,0,0,464,149a1.62,1.62,0,0,0-.1-.18.77.77,0,0,0-.1-.18l-.24-.34h0a2.85,2.85,0,0,0-.23-.26l-.22-.21a3.9,3.9,0,0,0-.51-.4,4.71,4.71,0,0,0-.58-.32l-.3-.12a4.47,4.47,0,0,0-.63-.16,1.88,1.88,0,0,0-.33-.05h-.07a4.3,4.3,0,0,0-.8,0l-.17,0L238.41,175.65l-27.67-34.48,0,0a3.39,3.39,0,0,0-.31-.34l-.31-.28,0,0c-.11-.09-.23-.17-.35-.25l-.12-.07-.34-.18-.36-.14a2.08,2.08,0,0,0-.41-.11,1.28,1.28,0,0,0-.27-.05,1,1,0,0,0-.25,0l-.38,0-.39,0a4.31,4.31,0,0,0-.81.17,2.26,2.26,0,0,0-.39.15h0l-.36.18-.33.21-.11.08a3.78,3.78,0,0,0-.55.51.74.74,0,0,0-.12.13l-26.83,29.59L5.16,123l-.29-.08a4.5,4.5,0,0,0-.9-.09,2.56,2.56,0,0,0-.39,0H3.43a2.71,2.71,0,0,0-.41.09,3.8,3.8,0,0,0-1.24.55,3.63,3.63,0,0,0-1,1,.51.51,0,0,0-.09.13s0,0,0,0a1.3,1.3,0,0,0-.1.15,4.17,4.17,0,0,0-.36.81,2,2,0,0,0-.07.23,3.57,3.57,0,0,0-.1.57,2.4,2.4,0,0,0,0,.37c0,.13,0,.27,0,.41a2,2,0,0,0,0,.24,4.13,4.13,0,0,0,.34,1.12l0,0L74.87,284.64l0,0a.31.31,0,0,0,0,.1,3.79,3.79,0,0,0,.2.34l0,0a3,3,0,0,0,.35.45,2.86,2.86,0,0,0,.4.38,3.68,3.68,0,0,0,1.2.69,3.24,3.24,0,0,0,.53.16,3.43,3.43,0,0,0,.56.08l271.36,32.44h0a3.71,3.71,0,0,0,.47,0h.46l.16,0a1.87,1.87,0,0,0,.34-.08l.3-.08.3-.11.19-.09a2.48,2.48,0,0,0,.32-.17,3.54,3.54,0,0,0,.54-.4h0a1.07,1.07,0,0,0,.16-.14,3.45,3.45,0,0,0,.26-.28,3.27,3.27,0,0,0,.28-.37s0,0,0,0L463.7,153l0-.06a3,3,0,0,0,.26-.46,1.59,1.59,0,0,0,.12-.27,1.63,1.63,0,0,0,.11-.31,1.42,1.42,0,0,0,0-.16.94.94,0,0,0,0-.16,2.87,2.87,0,0,0,.05-.31l0-.2V151a5.23,5.23,0,0,0,0-.56A.81.81,0,0,0,464.39,150.23Zm-40.14,9.23L270,215l-25.68-32Zm-212.72-4.53,22,27.46L261,216.59h0l-30.33-.92-19.48-.58ZM182,177.79l.06-.07,21.45-23.66-.33,60.8-53.31-1.61h0Zm-10.35-.48-32.3,35.62h0l-42.11-1.27-11.48-.35h0L60.39,183.24l-44.2-48.93ZM79.82,216.68l-4.13,51.09L19.43,149.84l60.39,66.83Zm3,62.72,4.85-60,53.21,1.6h.28l65.77,2h.35l56.61,1.7h0l52.74,59.15,23.45,26.3Zm266.85,29.45-77-86.35,177.7-63.91Z"/><path class="cls-1" d="M135.51,27.27a18.6,18.6,0,0,1,6.57,12.87H124.71a4.74,4.74,0,0,0-2.11-4,9.34,9.34,0,0,0-5.27-1.35,7.63,7.63,0,0,0-3.69.76,2.56,2.56,0,0,0-1.35,2.39q0,1.62,2.16,2.61a43,43,0,0,0,6.75,2.16,70.28,70.28,0,0,1,9.23,2.84,17.8,17.8,0,0,1,6.48,4.41,10.77,10.77,0,0,1,2.74,7.69,15,15,0,0,1-.36,3.42,14.42,14.42,0,0,1-6.88,9.49Q126.7,74.16,117,74.16q-10.44,0-16.83-4.64A16.37,16.37,0,0,1,93.3,56.43h17.37a4,4,0,0,0,1.94,4.09,10.62,10.62,0,0,0,5.8,1.4q4.32,0,5-2.88.36-2-1.8-3.06a35.69,35.69,0,0,0-7.11-2.25,89.22,89.22,0,0,1-9.13-2.79,16.16,16.16,0,0,1-6.21-4.23,10.84,10.84,0,0,1-2.66-7.65,25.27,25.27,0,0,1,.36-3.33q1-5.85,6.66-9.58t15.39-3.74Q129.75,22.41,135.51,27.27Z"/><path class="cls-1" d="M197.93,26.77q4,4.2,4,11.75a31.72,31.72,0,0,1-.54,5.67l-5.13,29.34H178.62l4.77-27.09a12.51,12.51,0,0,0,.27-2.43,6.84,6.84,0,0,0-1.84-5.13,7.11,7.11,0,0,0-5.18-1.8,9.79,9.79,0,0,0-6.48,2.25,11.5,11.5,0,0,0-3.69,6.39l-4.86,27.81H143.88l11.7-66.6h17.73L169,31.41A21.8,21.8,0,0,1,176.51,25a21.36,21.36,0,0,1,10-2.38Q193.92,22.59,197.93,26.77Z"/><path class="cls-1" d="M232.17,23l-8.91,50.49H205.53L214.44,23ZM216.92,5.26a11.31,11.31,0,0,1,4.36-3.82A13.34,13.34,0,0,1,227.49,0,9.44,9.44,0,0,1,234,2.07a6.87,6.87,0,0,1,2.34,5.4,9.42,9.42,0,0,1-1.57,5.22,10.92,10.92,0,0,1-4.32,3.82,13.31,13.31,0,0,1-6.17,1.4,9.59,9.59,0,0,1-6.57-2.07,6.77,6.77,0,0,1-2.34-5.31A9.4,9.4,0,0,1,216.92,5.26Z"/><path class="cls-1" d="M287.16,27.54q4.77,5.13,4.77,14.13a34.34,34.34,0,0,1-.63,6.57,37.76,37.76,0,0,1-5.22,13.81,26.62,26.62,0,0,1-9.18,9,22.59,22.59,0,0,1-11.43,3.11,15.45,15.45,0,0,1-8.82-2.3,11.1,11.1,0,0,1-4.59-6.34l-5.67,32.13H228.66L241.8,23h17.73l-1.44,8a17.73,17.73,0,0,1,6.84-6.35,20.2,20.2,0,0,1,9.63-2.29Q282.39,22.41,287.16,27.54ZM269.52,55.93a12.66,12.66,0,0,0,3.87-7.69,13.3,13.3,0,0,0,.27-2.61A7.09,7.09,0,0,0,266,37.89a10.08,10.08,0,0,0-7.07,2.79A13.31,13.31,0,0,0,255,48.24a14.69,14.69,0,0,0-.27,2.7,7.66,7.66,0,0,0,2.07,5.72,7.55,7.55,0,0,0,5.49,2A10.39,10.39,0,0,0,269.52,55.93Z"/><path class="cls-1" d="M337.38,23l-8.91,50.49H310.74L319.65,23ZM322.12,5.26a11.41,11.41,0,0,1,4.37-3.82A13.34,13.34,0,0,1,332.7,0a9.44,9.44,0,0,1,6.48,2.07,6.87,6.87,0,0,1,2.34,5.4,9.43,9.43,0,0,1-1.58,5.22,10.92,10.92,0,0,1-4.32,3.82,13.27,13.27,0,0,1-6.16,1.4,9.59,9.59,0,0,1-6.57-2.07,6.77,6.77,0,0,1-2.34-5.31A9.39,9.39,0,0,1,322.12,5.26Z"/><path class="cls-1" d="M361.23,54.09a6.79,6.79,0,0,0-.09,1.26,2.82,2.82,0,0,0,.9,2.34,4.8,4.8,0,0,0,3,.72h4.86l-2.79,15.12h-7.2q-16.83,0-16.83-14.31a30.84,30.84,0,0,1,.54-5.49l2.88-15.93H339.9L342.51,23h6.57l2.16-12.24h17.64L366.72,23h9.18L373.29,37.8h-9.18Z"/></svg>